<svg xmlns="http://www.w3.org/2000/svg" viewBox="0 0 256 256">
	<path fill="white" d="M 167.00,21.00
           C 167.00,21.00 128.00,21.00 128.00,21.00
             122.51,21.00 115.67,20.14 111.11,23.65
             100.62,31.70 112.20,49.72 98.00,52.59
             84.56,55.32 85.90,39.23 86.00,31.00
             86.27,9.32 103.45,0.03 123.00,0.00
             123.00,0.00 224.00,0.00 224.00,0.00
             235.81,0.02 249.46,1.01 254.16,14.00
             255.78,18.47 255.99,23.30 256.00,28.00
             256.00,28.00 256.00,207.00 256.00,207.00
             255.99,215.04 255.14,222.94 248.90,228.79
             243.60,233.75 221.96,239.68 214.00,242.33
             214.00,242.33 186.00,251.67 186.00,251.67
             180.99,253.34 174.28,255.95 169.00,255.47
             156.92,254.37 150.15,245.71 150.00,234.00
             150.00,234.00 150.00,224.00 150.00,224.00
             150.00,224.00 130.00,224.00 130.00,224.00
             112.05,224.00 94.85,223.03 87.70,203.00
             86.10,198.52 86.02,196.65 86.00,192.00
             86.00,192.00 86.00,175.00 86.00,175.00
             86.01,171.05 85.68,167.38 88.43,164.14
             93.58,158.07 105.80,158.90 106.00,173.00
             106.08,179.35 104.95,191.76 108.09,196.96
             111.66,202.89 116.89,202.99 123.00,203.00
             123.00,203.00 150.00,203.00 150.00,203.00
             150.00,203.00 150.00,73.00 150.00,73.00
             150.00,73.00 150.00,45.00 150.00,45.00
             150.01,39.02 150.07,35.12 153.80,30.04
             157.45,25.07 161.81,23.70 167.00,21.00 Z
           M 54.00,96.00
           C 54.00,96.00 54.00,66.00 54.00,66.00
             54.06,61.79 54.31,58.38 58.11,55.74
             63.80,51.78 69.65,54.96 74.00,59.04
             74.00,59.04 106.00,91.00 106.00,91.00
             110.05,95.05 116.95,100.76 116.71,107.00
             116.49,112.79 109.86,118.14 106.00,122.00
             106.00,122.00 75.00,153.00 75.00,153.00
             70.15,157.76 64.83,162.27 58.11,157.30
             53.65,154.00 54.01,149.94 54.00,145.00
             54.00,145.00 54.00,117.00 54.00,117.00
             54.00,117.00 14.00,117.00 14.00,117.00
             8.12,116.92 2.48,115.59 0.89,109.00
             -1.51,99.06 8.39,96.09 16.00,96.00
             16.00,96.00 54.00,96.00 54.00,96.00 Z" />
</svg>
