<svg xmlns="http://www.w3.org/2000/svg" viewBox="0 0 256 256">
	<path fill="white" d="M 28.00,151.00
           C 21.59,151.00 17.88,151.38 12.00,148.10
             0.63,141.75 -2.80,127.05 3.76,116.00
             7.98,108.90 26.15,91.85 33.00,85.00
             33.00,85.00 92.00,26.00 92.00,26.00
             101.60,16.40 113.50,0.57 128.00,0.57
             142.50,0.57 154.40,16.40 164.00,26.00
             164.00,26.00 222.00,84.00 222.00,84.00
             228.51,90.51 247.58,108.57 251.53,115.00
             258.15,125.74 256.19,140.59 244.99,147.52
             238.86,151.32 234.83,151.00 228.00,151.00
             228.00,151.00 228.00,228.00 228.00,228.00
             227.95,231.75 227.74,234.41 226.45,238.00
             219.21,258.28 197.25,256.00 180.00,256.00
             173.65,256.00 157.64,257.90 154.17,251.87
             152.79,249.46 153.00,245.73 153.00,243.00
             153.00,243.00 153.00,193.00 153.00,193.00
             152.97,186.79 152.39,181.82 146.91,177.85
             141.20,173.72 129.05,174.99 122.00,175.00
             108.61,175.02 103.02,179.20 103.00,193.00
             103.00,193.00 103.00,236.00 103.00,236.00
             103.00,240.22 103.78,249.50 101.26,252.72
             98.43,256.36 93.12,255.99 89.00,256.00
             89.00,256.00 69.00,256.00 69.00,256.00
             52.90,256.00 35.06,255.67 29.22,237.00
             27.95,232.93 28.01,230.16 28.00,226.00
             28.00,226.00 28.00,151.00 28.00,151.00 Z" />
</svg>
