<svg xmlns="http://www.w3.org/2000/svg" viewBox="0 0 240 256">
  <path fill="white" d="M 96.00,112.00
           C 96.00,112.00 96.00,28.00 96.00,28.00
             96.00,20.80 93.80,5.13 101.05,1.31
             103.89,-0.18 107.86,0.00 111.00,0.00
             111.00,0.00 137.00,0.57 137.00,0.57
             139.19,1.21 140.84,2.22 142.15,4.13
             144.23,7.18 143.99,11.46 144.00,15.00
             144.00,15.00 144.00,112.00 144.00,112.00
             144.00,112.00 168.00,112.00 168.00,112.00
             172.43,112.01 179.41,111.72 181.98,116.14
             186.01,123.08 176.46,131.32 172.42,136.00
             172.42,136.00 135.72,178.00 135.72,178.00
             132.24,182.00 125.52,191.32 120.00,191.32
             114.48,191.32 107.76,182.00 104.28,178.00
             104.28,178.00 67.58,136.00 67.58,136.00
             63.54,131.32 53.99,123.08 58.02,116.14
             60.59,111.72 67.57,112.01 72.00,112.00
             72.00,112.00 96.00,112.00 96.00,112.00 Z
           M 0.00,176.00
           C 0.00,176.00 32.00,176.00 32.00,176.00
             32.00,176.00 32.00,224.00 32.00,224.00
             32.00,224.00 208.00,224.00 208.00,224.00
             208.00,224.00 208.00,176.00 208.00,176.00
             208.00,176.00 240.00,176.00 240.00,176.00
             240.00,176.00 240.00,225.00 240.00,225.00
             240.00,231.50 240.77,242.50 237.27,248.00
             232.43,255.56 225.08,255.99 217.00,256.00
             217.00,256.00 51.00,256.00 51.00,256.00
             51.00,256.00 21.00,256.00 21.00,256.00
             13.28,255.91 6.11,254.49 2.16,247.00
             0.13,243.14 0.01,237.29 0.00,233.00
             0.00,233.00 0.00,176.00 0.00,176.00 Z" />
</svg>
