<svg xmlns="http://www.w3.org/2000/svg" viewBox="0 0 256 184">
  <path fill="white" d="M 44.00,1.00
           C 44.00,1.00 44.00,51.00 44.00,51.00
             43.92,57.16 42.91,63.91 39.06,68.91
             31.04,79.35 14.50,81.12 5.55,70.82
             -2.96,61.06 1.18,50.28 5.55,40.00
             13.89,20.56 19.56,3.05 44.00,1.00 Z
           M 52.00,1.00
           C 52.00,1.00 97.00,1.00 97.00,1.00
             97.00,1.00 97.00,50.00 97.00,50.00
             96.99,56.87 96.64,62.22 92.07,67.83
             82.49,79.62 64.29,78.66 55.85,66.00
             52.36,60.76 52.01,55.06 52.00,49.00
             52.00,49.00 52.00,1.00 52.00,1.00 Z
           M 106.00,1.00
           C 106.00,1.00 150.00,1.00 150.00,1.00
             150.00,1.00 150.00,52.00 150.00,52.00
             149.99,59.00 149.63,63.36 144.67,68.91
             135.11,79.60 116.90,78.12 109.13,66.00
             104.92,59.43 106.00,51.45 106.00,44.00
             106.00,44.00 106.00,1.00 106.00,1.00 Z
           M 159.00,1.00
           C 159.00,1.00 204.00,1.00 204.00,1.00
             204.00,1.00 204.00,43.00 204.00,43.00
             204.00,50.85 204.74,59.12 200.15,66.00
             191.71,78.66 173.51,79.62 163.93,67.83
             159.36,62.22 159.01,56.87 159.00,50.00
             159.00,50.00 159.00,1.00 159.00,1.00 Z
           M 212.00,1.00
           C 235.06,2.94 240.42,17.65 248.70,36.00
             251.42,42.04 256.05,51.41 255.47,58.00
             253.96,75.23 235.98,83.34 222.04,73.75
             214.12,68.31 212.11,60.09 212.00,51.00
             212.00,51.00 212.00,1.00 212.00,1.00 Z
           M 48.00,71.00
           C 48.00,71.00 59.00,80.03 59.00,80.03
             68.00,85.83 78.57,86.02 88.00,81.18
             94.28,77.96 97.45,72.70 103.00,71.00
             115.95,89.03 140.05,89.03 153.00,71.00
             158.55,72.70 161.72,77.96 168.00,81.18
             177.43,86.02 188.00,85.83 197.00,80.03
             197.00,80.03 208.00,71.00 208.00,71.00
             219.11,83.76 229.06,89.49 246.00,84.00
             246.00,84.00 246.00,158.00 246.00,158.00
             246.00,165.42 248.31,178.98 239.98,182.26
             237.78,183.13 234.39,183.00 232.00,183.00
             232.00,183.00 90.00,183.00 90.00,183.00
             90.00,183.00 90.00,121.00 90.00,121.00
             89.98,112.37 88.63,111.02 80.00,111.00
             80.00,111.00 45.00,111.00 45.00,111.00
             45.00,111.00 45.00,183.00 45.00,183.00
             45.00,183.00 22.00,183.00 22.00,183.00
             18.21,182.94 15.15,182.84 12.43,179.77
             9.67,176.67 10.01,172.85 10.00,169.00
             10.00,169.00 10.00,84.00 10.00,84.00
             26.94,89.49 36.89,83.76 48.00,71.00 Z
           M 135.31,111.60
           C 132.71,113.79 133.07,114.62 133.00,118.00
             133.00,118.00 133.00,144.00 133.00,144.00
             133.01,145.82 132.85,148.92 134.02,150.40
             135.59,152.38 139.70,152.00 142.00,152.00
             142.00,152.00 200.00,152.00 200.00,152.00
             203.48,152.00 215.99,152.92 217.98,150.40
             219.23,148.81 219.00,144.99 219.00,143.00
             219.00,143.00 219.00,119.00 219.00,119.00
             218.99,117.18 219.15,114.08 217.98,112.60
             216.41,110.62 212.30,111.00 210.00,111.00
             210.00,111.00 161.00,111.00 161.00,111.00
             155.06,111.00 140.22,110.41 135.31,111.60 Z" />
</svg>
