<svg xmlns="http://www.w3.org/2000/svg" viewBox="0 0 206 256">
  <path fill="white" d="M 39.00,69.00
           C 39.00,69.00 48.00,78.00 48.00,78.00
             53.06,83.06 58.11,89.59 65.98,85.55
             73.59,81.64 72.51,75.89 73.17,69.00
             73.81,62.31 74.78,55.45 76.72,49.00
             82.98,28.14 102.74,6.74 124.00,1.00
             124.00,1.00 127.44,13.00 127.44,13.00
             134.15,31.49 148.37,54.46 160.42,70.00
             160.42,70.00 189.48,106.00 189.48,106.00
             200.28,122.28 205.22,138.56 205.00,158.00
             204.86,169.44 201.44,182.43 197.20,193.00
             192.58,204.51 185.66,215.11 176.99,224.00
             143.32,258.50 89.09,266.25 48.00,239.91
             33.24,230.45 21.36,217.26 12.86,202.00
             3.97,186.03 0.92,168.06 1.00,150.00
             1.11,125.86 10.34,107.19 24.00,88.00
             28.28,81.99 33.46,73.62 39.00,69.00 Z
           M 74.00,126.33
           C 51.70,131.69 55.34,164.05 76.00,164.96
             81.63,165.21 87.62,164.10 91.61,159.79
             99.57,151.20 97.16,133.89 87.00,128.09
             82.92,125.75 78.51,125.83 74.00,126.33 Z
           M 135.00,127.00
           C 135.00,127.00 126.00,127.00 126.00,127.00
             124.02,127.00 120.89,126.88 119.09,127.60
             114.98,129.23 109.27,139.09 106.67,143.00
             106.67,143.00 85.58,174.00 85.58,174.00
             81.35,179.97 73.47,190.55 71.00,197.00
             71.00,197.00 80.00,197.00 80.00,197.00
             81.97,197.00 85.12,197.12 86.91,196.40
             90.85,194.82 96.41,184.79 99.02,181.00
             99.02,181.00 123.67,145.00 123.67,145.00
             127.32,139.52 132.75,132.88 135.00,127.00 Z
           M 77.09,138.45
           C 83.92,138.95 82.28,151.17 78.74,152.75
             76.08,153.94 74.63,151.07 74.23,148.96
             73.45,144.93 73.63,140.90 77.09,138.45 Z
           M 128.00,158.46
           C 121.58,159.13 116.72,160.35 112.85,166.02
             110.31,169.74 110.05,172.66 110.00,177.00
             109.88,188.67 115.01,197.82 128.00,197.82
             147.66,197.83 151.69,174.80 142.29,164.33
             138.48,160.07 133.50,158.70 128.00,158.46 Z
           M 127.23,171.17
           C 134.21,170.42 132.49,183.12 129.61,184.93
             126.71,186.75 125.08,183.24 124.53,180.98
             123.58,176.99 124.21,173.89 127.23,171.17 Z" />
</svg>
