<svg xmlns="http://www.w3.org/2000/svg" viewBox="0 0 254 256">
  <path fill="white" d="M 101.00,0.00
           C 101.00,0.00 145.00,0.00 145.00,0.00
             145.00,0.00 145.00,46.00 145.00,46.00
             145.00,46.00 161.00,46.00 161.00,46.00
             161.00,46.00 161.00,0.00 161.00,0.00
             161.00,0.00 205.00,0.00 205.00,0.00
             205.00,0.00 205.00,76.00 205.00,76.00
             205.00,76.00 101.00,76.00 101.00,76.00
             101.00,76.00 101.00,0.00 101.00,0.00 Z
           M 1.00,61.00
           C 1.00,61.00 45.00,61.00 45.00,61.00
             47.15,61.00 50.71,60.77 52.49,62.02
             54.29,63.28 55.41,66.96 56.19,69.00
             57.75,73.08 62.45,88.02 65.41,89.98
             67.30,91.22 70.78,91.00 73.00,91.00
             73.00,91.00 253.00,91.00 253.00,91.00
             253.00,91.00 226.33,172.00 226.33,172.00
             226.33,172.00 221.00,188.00 221.00,188.00
             220.29,190.13 219.38,193.65 217.49,194.98
             215.71,196.23 212.14,196.00 210.00,196.14
             210.00,196.14 114.00,196.14 114.00,196.14
             114.00,196.14 92.00,196.14 92.00,196.14
             88.27,197.47 85.05,200.89 86.08,204.98
             87.61,211.05 94.04,210.99 99.00,211.00
             99.00,211.00 192.00,211.00 192.00,211.00
             205.61,211.02 219.54,216.01 219.98,232.00
             220.63,255.12 194.89,262.14 182.33,248.82
             175.54,241.63 175.82,234.96 177.00,226.00
             177.00,226.00 129.00,226.00 129.00,226.00
             129.71,228.50 129.91,229.37 129.98,232.00
             130.09,235.53 130.06,238.69 128.64,242.00
             118.53,265.42 84.16,255.75 86.19,232.00
             86.40,229.52 87.16,227.31 88.00,225.00
             82.78,223.14 79.24,221.58 75.79,216.96
             67.49,205.87 70.62,189.25 84.00,184.00
             84.00,184.00 75.58,162.00 75.58,162.00
             75.58,162.00 57.95,115.00 57.95,115.00
             57.95,115.00 44.00,76.00 44.00,76.00
             44.00,76.00 1.00,76.00 1.00,76.00
             1.00,76.00 1.00,61.00 1.00,61.00 Z
           M 105.00,121.00
           C 105.00,121.00 101.99,107.60 101.99,107.60
             101.99,107.60 96.00,106.00 96.00,106.00
             96.00,106.00 70.00,106.00 70.00,106.00
             70.00,106.00 75.00,121.00 75.00,121.00
             75.00,121.00 105.00,121.00 105.00,121.00 Z
           M 146.00,106.00
           C 146.00,106.00 117.00,106.00 117.00,106.00
             117.00,106.00 119.00,121.00 119.00,121.00
             119.00,121.00 146.00,121.00 146.00,121.00
             146.00,121.00 146.00,106.00 146.00,106.00 Z
           M 190.00,106.00
           C 190.00,106.00 160.00,106.00 160.00,106.00
             160.00,106.00 160.00,121.00 160.00,121.00
             160.00,121.00 180.00,121.00 180.00,121.00
             180.00,121.00 186.99,119.40 186.99,119.40
             186.99,119.40 190.00,106.00 190.00,106.00 Z
           M 233.00,106.00
           C 233.00,106.00 204.00,106.00 204.00,106.00
             204.00,106.00 202.00,121.00 202.00,121.00
             202.00,121.00 229.00,121.00 229.00,121.00
             229.00,121.00 233.00,106.00 233.00,106.00 Z
           M 110.00,151.00
           C 110.00,151.00 106.99,137.60 106.99,137.60
             106.99,137.60 99.00,136.00 99.00,136.00
             99.00,136.00 81.00,136.00 81.00,136.00
             81.00,136.00 86.70,149.40 86.70,149.40
             86.70,149.40 95.00,151.00 95.00,151.00
             95.00,151.00 110.00,151.00 110.00,151.00 Z
           M 146.00,136.00
           C 146.00,136.00 122.00,136.00 122.00,136.00
             122.00,136.00 124.00,151.00 124.00,151.00
             124.00,151.00 146.00,151.00 146.00,151.00
             146.00,151.00 146.00,136.00 146.00,136.00 Z
           M 185.00,136.00
           C 185.00,136.00 160.00,136.00 160.00,136.00
             160.00,136.00 160.00,151.00 160.00,151.00
             160.00,151.00 176.00,151.00 176.00,151.00
             176.00,151.00 181.99,149.40 181.99,149.40
             181.99,149.40 185.00,136.00 185.00,136.00 Z
           M 223.00,136.00
           C 223.00,136.00 199.00,136.00 199.00,136.00
             199.00,136.00 197.00,151.00 197.00,151.00
             197.00,151.00 219.00,151.00 219.00,151.00
             219.00,151.00 223.00,136.00 223.00,136.00 Z
           M 115.00,181.00
           C 114.54,178.48 113.26,169.13 111.99,167.60
             109.88,165.05 96.66,166.00 93.00,166.00
             93.51,169.26 95.83,178.10 98.51,179.98
             100.83,181.61 111.67,181.00 115.00,181.00 Z
           M 146.00,166.00
           C 146.00,166.00 127.00,166.00 127.00,166.00
             127.00,166.00 129.00,181.00 129.00,181.00
             129.00,181.00 146.00,181.00 146.00,181.00
             146.00,181.00 146.00,166.00 146.00,166.00 Z
           M 180.00,166.00
           C 180.00,166.00 160.00,166.00 160.00,166.00
             160.00,166.00 160.00,181.00 160.00,181.00
             163.46,181.00 174.91,181.91 176.99,179.40
             178.26,177.87 179.54,168.52 180.00,166.00 Z
           M 213.00,166.00
           C 213.00,166.00 194.00,166.00 194.00,166.00
             194.00,166.00 192.00,181.00 192.00,181.00
             192.00,181.00 209.00,181.00 209.00,181.00
             209.00,181.00 213.00,166.00 213.00,166.00 Z" />
</svg>
