<svg xmlns="http://www.w3.org/2000/svg" viewBox="0 0 256 251">
	<path fill="white" d="M 179.00,116.00
           C 179.00,116.00 179.00,180.00 179.00,180.00
             178.94,192.43 175.23,195.98 163.00,196.00
             163.00,196.00 118.00,196.00 118.00,196.00
             110.57,196.14 110.05,198.04 110.00,205.00
             110.00,205.00 110.00,240.00 110.00,240.00
             110.00,241.91 110.12,245.17 109.40,246.89
             108.04,250.16 105.19,250.91 102.00,249.99
             102.00,249.99 84.00,241.14 84.00,241.14
             84.00,241.14 23.00,209.42 23.00,209.42
             16.95,206.01 5.43,201.88 2.14,195.98
             -0.02,192.13 0.01,187.28 0.00,183.00
             0.00,183.00 0.00,44.00 0.00,44.00
             0.00,44.00 0.00,21.00 0.00,21.00
             0.01,15.60 0.03,8.49 4.34,4.57
             8.31,0.95 13.98,1.01 19.00,1.00
             19.00,1.00 141.00,1.00 141.00,1.00
             147.29,1.00 166.20,0.24 171.00,2.15
             174.31,3.46 176.63,5.69 177.99,9.00
             179.16,11.84 179.00,15.00 179.00,18.00
             179.00,18.00 179.00,56.00 179.00,56.00
             179.00,56.00 155.00,56.00 155.00,56.00
             155.00,49.43 156.78,31.69 151.77,27.56
             148.90,25.19 144.55,25.05 141.00,25.00
             141.00,25.00 49.00,25.00 49.00,25.00
             53.64,29.73 60.14,32.31 66.00,35.25
             66.00,35.25 93.00,49.00 93.00,49.00
             105.54,56.12 110.97,55.68 111.00,72.00
             111.00,72.00 111.00,172.00 111.00,172.00
             111.00,172.00 143.00,172.00 143.00,172.00
             147.35,171.98 151.11,172.22 153.55,167.89
             155.58,164.28 155.00,156.31 155.00,152.00
             155.00,152.00 155.00,116.00 155.00,116.00
             155.00,116.00 179.00,116.00 179.00,116.00 Z
           M 212.00,72.00
           C 206.39,66.39 191.18,53.44 190.23,46.00
             188.89,35.52 200.50,29.48 209.00,34.74
             211.77,36.45 218.34,43.34 221.00,46.00
             221.00,46.00 243.00,68.00 243.00,68.00
             246.97,71.97 253.64,77.56 255.02,83.00
             256.75,89.79 252.36,94.51 247.99,99.00
             247.99,99.00 220.00,127.00 220.00,127.00
             215.98,131.02 210.66,137.34 205.00,138.61
             195.89,140.65 188.45,133.05 190.53,124.00
             191.72,118.86 195.43,115.59 199.00,112.00
             199.00,112.00 212.00,99.00 212.00,99.00
             212.00,99.00 146.00,99.00 146.00,99.00
             138.74,98.99 132.70,98.69 129.48,90.99
             128.55,88.76 128.05,86.42 128.37,84.00
             129.77,73.34 139.26,72.01 148.00,72.00
             148.00,72.00 212.00,72.00 212.00,72.00 Z" />
</svg>
