<svg xmlns="http://www.w3.org/2000/svg" viewBox="0 0 256 256">
  <path fill="white" d="M 24.00,20.00
           C 24.00,14.69 22.97,6.31 27.28,2.51
             30.44,-0.28 35.06,0.01 39.00,0.00
             39.00,0.00 90.00,0.00 90.00,0.00
             92.16,0.01 94.94,-0.03 97.00,0.57
             105.62,3.08 104.00,13.00 104.00,20.00
             104.00,20.00 24.00,20.00 24.00,20.00 Z
           M 152.00,8.00
           C 152.17,5.05 152.12,2.18 155.23,0.74
             157.55,-0.35 166.02,0.00 169.00,0.00
             169.00,0.00 199.00,0.00 199.00,0.00
             205.90,0.10 207.58,0.91 208.00,8.00
             208.00,8.00 152.00,8.00 152.00,8.00 Z
           M 155.23,16.74
           C 160.11,15.45 165.92,16.00 171.00,16.00
             171.00,16.00 199.00,16.00 199.00,16.00
             201.75,16.04 207.14,16.01 207.14,20.00
             207.14,21.21 206.51,22.14 205.55,22.83
             203.58,24.23 199.39,24.00 197.00,24.00
             197.00,24.00 163.00,24.00 163.00,24.00
             160.07,24.00 153.95,24.53 152.96,20.82
             152.37,18.56 153.76,17.83 155.23,16.74 Z
           M 1.00,72.00
           C 1.00,72.00 16.58,42.00 16.58,42.00
             16.58,42.00 23.90,29.57 23.90,29.57
             23.90,29.57 32.00,28.00 32.00,28.00
             32.00,28.00 95.00,28.00 95.00,28.00
             95.00,28.00 79.42,58.00 79.42,58.00
             79.42,58.00 72.10,70.43 72.10,70.43
             72.10,70.43 64.00,72.00 64.00,72.00
             64.00,72.00 1.00,72.00 1.00,72.00 Z
           M 103.00,30.00
           C 103.00,30.00 105.00,30.00 105.00,30.00
             105.00,30.00 120.25,58.00 120.25,58.00
             125.24,67.52 127.98,68.78 128.00,80.00
             128.00,80.00 128.00,98.00 128.00,98.00
             127.98,108.93 124.85,112.99 121.34,123.00
             121.34,123.00 103.95,170.00 103.95,170.00
             103.95,170.00 89.81,208.00 89.81,208.00
             88.82,210.59 86.58,220.60 82.39,218.60
             79.55,217.25 80.00,211.63 80.00,209.00
             80.00,209.00 80.00,80.00 80.00,80.00
             80.02,69.58 83.92,64.94 89.00,56.00
             89.00,56.00 103.00,30.00 103.00,30.00 Z
           M 154.00,32.53
           C 154.00,32.53 198.00,32.00 198.00,32.00
             205.01,32.01 213.15,32.60 215.11,41.00
             217.16,49.83 204.73,56.34 205.31,61.91
             205.57,64.51 209.20,67.24 210.96,69.04
             215.00,73.16 217.33,76.76 219.69,82.00
             225.72,95.39 224.21,127.32 224.00,143.00
             223.85,153.48 219.84,152.19 206.00,152.00
             196.37,151.86 197.21,149.07 192.00,136.00
             192.00,136.00 182.68,112.00 182.68,112.00
             180.71,106.68 179.06,100.97 173.98,97.74
             170.84,95.73 167.55,96.01 164.00,96.00
             164.00,96.00 148.00,96.00 148.00,96.00
             145.30,96.00 140.63,96.32 138.41,94.26
             136.71,92.32 137.55,89.29 138.41,87.00
             140.06,80.61 143.55,74.86 148.09,70.01
             149.70,68.30 153.90,64.78 154.60,62.83
             155.73,59.68 152.56,56.25 150.72,54.00
             145.77,47.95 140.63,40.98 149.11,34.70
             150.81,33.44 152.07,33.15 154.00,32.53 Z
           M 0.00,80.00
           C 0.00,80.00 72.00,80.00 72.00,80.00
             72.00,80.00 72.00,104.00 72.00,104.00
             72.00,104.00 0.00,104.00 0.00,104.00
             0.00,104.00 0.00,80.00 0.00,80.00 Z
           M 152.00,104.00
           C 155.38,104.00 166.28,103.59 168.78,104.74
             172.21,106.31 177.96,121.23 177.51,124.96
             176.96,129.47 170.10,132.29 172.86,138.96
             175.52,145.41 181.82,143.26 184.61,144.57
             187.19,145.79 188.13,149.51 189.00,152.00
             189.00,152.00 176.00,152.00 176.00,152.00
             169.38,151.88 169.65,150.92 165.81,141.00
             165.81,141.00 152.00,104.00 152.00,104.00 Z
           M 167.00,251.00
           C 167.00,251.00 153.00,254.54 153.00,254.54
             136.94,257.39 120.49,254.60 106.00,247.24
             101.17,244.79 90.22,238.52 89.06,233.00
             88.46,230.12 92.49,219.76 94.65,217.72
             96.82,215.66 100.62,215.35 102.82,210.98
             105.47,205.72 101.00,203.18 101.63,198.00
             101.63,198.00 109.80,176.00 109.80,176.00
             110.72,173.66 112.99,166.93 114.22,165.31
             118.26,160.01 125.68,168.20 130.30,158.96
             135.09,149.38 122.20,150.25 123.34,141.98
             123.34,141.98 134.05,113.00 134.05,113.00
             135.09,110.22 136.34,105.27 140.00,105.27
             144.16,105.27 145.86,112.83 147.05,116.00
             147.05,116.00 161.00,152.00 161.00,152.00
             155.15,155.15 150.49,159.76 152.43,167.00
             154.03,172.98 159.49,174.11 160.71,178.21
             160.71,178.21 163.17,205.00 163.17,205.00
             163.17,205.00 167.00,251.00 167.00,251.00 Z
           M 0.00,112.00
           C 0.00,112.00 72.00,112.00 72.00,112.00
             72.00,112.00 72.00,208.00 72.00,208.00
             72.00,208.00 0.00,208.00 0.00,208.00
             0.00,208.00 0.00,112.00 0.00,112.00 Z
           M 35.00,128.74
           C 29.92,131.12 27.13,135.46 24.03,140.00
             17.37,149.74 10.66,160.74 12.18,173.00
             14.17,188.97 30.20,194.41 44.00,189.95
             47.11,188.95 49.46,187.77 51.98,185.66
             66.62,173.49 58.59,156.00 50.00,143.00
             46.47,137.67 42.04,129.00 35.00,128.74 Z
           M 169.00,168.00
           C 166.26,167.93 160.86,168.01 160.86,164.00
             160.86,162.79 161.49,161.86 162.45,161.17
             164.29,159.86 167.80,160.01 170.00,160.14
             170.00,160.14 231.00,160.14 231.00,160.14
             231.00,160.14 251.89,160.14 251.89,160.14
             255.55,161.56 256.20,164.95 253.55,166.83
             251.81,168.06 249.04,167.95 247.00,168.00
             247.00,168.00 241.17,234.00 241.17,234.00
             240.75,238.29 240.87,252.55 237.57,254.83
             235.52,256.24 231.45,256.00 229.00,256.00
             229.00,256.00 187.00,256.00 187.00,256.00
             184.55,256.00 180.48,256.24 178.43,254.83
             175.13,252.55 175.25,238.29 174.83,234.00
             174.83,234.00 169.00,168.00 169.00,168.00 Z
           M 132.00,172.43
           C 117.29,178.27 123.87,199.99 140.00,195.57
             148.00,193.38 150.62,182.28 145.57,176.11
             141.91,171.63 137.23,171.64 132.00,172.43 Z
           M 143.00,204.43
           C 130.23,209.58 136.38,226.99 149.00,223.57
             155.96,221.68 158.23,212.47 153.57,207.23
             150.59,203.87 147.08,203.85 143.00,204.43 Z
           M 112.00,216.43
           C 97.29,222.27 103.87,243.99 120.00,239.57
             128.00,237.38 130.62,226.28 125.57,220.11
             121.91,215.63 117.23,215.64 112.00,216.43 Z
           M 0.00,216.00
           C 0.00,216.00 72.00,216.00 72.00,216.00
             72.00,216.00 72.00,256.00 72.00,256.00
             72.00,256.00 22.00,256.00 22.00,256.00
             16.39,256.00 6.45,257.19 2.51,252.72
             -0.28,249.56 0.01,244.94 0.00,241.00
             0.00,241.00 0.00,216.00 0.00,216.00 Z" />
</svg>
