<svg xmlns="http://www.w3.org/2000/svg" viewBox="0 0 256 218">
  <path fill="white" d="M 121.00,1.44
           C 128.00,0.54 135.26,0.84 142.00,3.09
             147.56,4.94 153.60,8.40 157.96,12.30
             162.04,15.94 164.81,20.15 167.24,25.00
             180.90,52.31 164.16,83.81 134.00,88.56
             98.84,94.10 73.17,56.17 88.76,25.00
             91.42,19.67 94.39,15.32 99.01,11.47
             105.74,5.86 112.49,3.03 121.00,1.44 Z
           M 46.00,42.44
           C 80.21,38.16 96.92,83.80 68.00,102.45
             63.91,105.09 58.82,107.01 54.00,107.70
             48.56,108.48 43.08,107.54 38.00,105.54
             16.94,97.23 10.63,71.59 24.53,54.01
             30.05,47.03 37.53,44.02 46.00,42.44 Z
           M 202.00,42.44
           C 237.40,38.01 252.34,85.01 224.00,102.53
             219.90,105.07 214.78,107.01 210.00,107.70
             185.38,111.24 166.68,85.60 175.47,63.00
             180.22,50.77 189.55,44.77 202.00,42.44 Z
           M 98.00,99.23
           C 98.00,99.23 127.00,99.23 127.00,99.23
             147.05,99.00 166.93,95.24 180.37,114.00
             182.04,116.34 184.50,121.25 185.40,124.00
             186.87,128.49 186.99,132.36 187.00,137.00
             187.00,137.00 187.00,205.00 187.00,205.00
             186.98,215.66 185.66,216.98 175.00,217.00
             175.00,217.00 95.00,217.00 95.00,217.00
             89.78,217.00 73.97,218.37 70.74,214.57
             68.69,212.16 69.00,207.99 69.00,205.00
             69.00,205.00 69.00,155.00 69.00,155.00
             69.00,135.10 66.26,115.31 87.00,103.80
             90.89,101.64 93.69,100.49 98.00,99.23 Z
           M 54.00,217.00
           C 54.00,217.00 25.00,217.00 25.00,217.00
             21.36,216.99 18.53,217.12 15.00,215.89
             -3.55,209.44 0.00,186.50 0.00,171.00
             0.00,159.86 -0.63,148.34 4.33,138.00
             14.77,116.23 35.90,118.00 56.00,118.00
             56.00,118.00 53.00,137.00 53.00,137.00
             53.00,137.00 53.00,173.00 53.00,173.00
             53.00,173.00 54.00,217.00 54.00,217.00 Z
           M 200.00,118.00
           C 220.10,118.00 241.23,116.23 251.67,138.00
             254.80,144.53 255.97,152.80 256.00,160.00
             256.00,160.00 256.00,181.00 256.00,181.00
             256.00,194.85 256.58,211.42 240.00,216.21
             237.17,217.03 234.89,216.99 232.00,217.00
             232.00,217.00 202.00,217.00 202.00,217.00
             202.00,217.00 203.00,173.00 203.00,173.00
             203.00,173.00 203.00,138.00 203.00,138.00
             203.00,138.00 200.00,118.00 200.00,118.00 Z" />
</svg>
